#!OML:ASF H:\Male1\Project 1\Capture day 1\Session 1\Male1.ASF
:FULLY-SPECIFIED
:DEGREES
397
root 16.2534 15.4625 -0.210524 -149.026 -94.1519 146.986
lowerback 7.18122 3.20385 -5.10491
upperback 1.75874 3.65155 -3.8649
thorax -2.26947 1.78043 -1.46854
lowerneck -12.9937 -1.83019 3.77361
upperneck 1.14367 -3.41049 5.06474
head 2.66272 -1.52865 0.771646
rclavicle -4.47266e-014 7.95139e-015
rhumerus 26.1277 -5.17038 -32.241
rradius 81.215
rwrist -5.38104
rhand -38.3595 18.3556
rfingers 7.12502
rthumb -11.386 -11.3153
lclavicle -4.47266e-014 7.95139e-015
lhumerus -43.5725 -13.0944 78.7098
lradius 40.1385
lwrist 5.28266
lhand -20.646 9.29782
lfingers 7.12502
lthumb 5.7161 39.2007
rfemur 3.14657 10.5872 21.1951
rtibia 16.8171
rfoot -34.9634 -32.8428
rtoes -10.849
lfemur -2.31669 -20.7265 -20.9109
ltibia 24.6871
lfoot -23.3328 25.0282
ltoes -5.01726
398
root 16.2532 15.4626 -0.207387 -141.776 -93.4246 139.699
lowerback 7.04543 3.29781 -4.98045
upperback 1.75171 3.79847 -3.8361
thorax -2.19711 1.853 -1.51341
lowerneck -13.139 -1.88888 3.80331
upperneck 1.59183 -3.525 5.08277
head 2.84525 -1.56543 0.762784
rclavicle -6.55989e-015 7.95139e-015
rhumerus 27.7335 -2.3218 -31.2175
rradius 82.6948
rwrist -4.39346
rhand -37.7902 19.7457
rfingers 7.12502
rthumb -10.8369 -9.95473
lclavicle -6.55989e-015 7.95139e-015
lhumerus -43.3398 -12.7771 78.5455
lradius 38.8838
lwrist 4.77884
lhand -19.9482 9.90492
lfingers 7.12502
lthumb 6.38981 39.7885
rfemur 3.04352 11.0958 21.1278
rtibia 16.8478
rfoot -34.4025 -32.7964
rtoes -11.8219
lfemur -2.02563 -20.5043 -21.0738
ltibia 24.5682
lfoot -23.8811 25.4274
ltoes -3.87611
399
root 16.2563 15.4648 -0.206487 -129.565 -92.9349 127.477
lowerback 6.89497 3.34923 -4.66781
upperback 1.75425 3.90681 -3.78101
thorax -2.09514 1.90667 -1.62942
lowerneck -13.1797 -1.83886 3.86086
upperneck 1.68464 -3.48909 5.25072
head 2.88796 -1.53791 0.809649
rclavicle -1.68967e-014 6.67916e-014
rhumerus 29.9676 0.27076 -30.0042
rradius 83.7049
rwrist -2.77393
rhand -37.8019 21.004
rfingers 7.12502
rthumb -10.8482 -8.69582
lclavicle -1.68967e-014 6.67916e-014
lhumerus -42.9133 -12.3376 78.2811
lradius 37.5321
lwrist 4.04915
lhand -18.9422 10.1609
lfingers 7.12502
lthumb 7.36092 40.0129
rfemur 2.88326 11.6384 21.252
rtibia 16.9109
rfoot -34.056 -32.7055
rtoes -12.453
lfemur -1.81786 -20.2161 -21.0054
ltibia 24.4373
lfoot -24.358 25.7173
ltoes -2.85424
400
root 16.264 15.4688 -0.206452 -117.738 -92.6199 115.683
lowerback 6.83804 3.32493 -4.37783
upperback 1.70883 3.90048 -3.77236
thorax -2.09181 1.90452 -1.77815
lowerneck -12.989 -1.81907 4.0076
upperneck 1.667 -3.48417 5.37713
head 2.84598 -1.53426 0.827633
rclavicle 9.93923e-015 -1.90833e-014
rhumerus 32.7353 2.39465 -28.7419
rradius 84.6418
rwrist -2.05055
rhand -36.6441 22.1491
rfingers 7.12502
rthumb -9.7313 -7.60613
lclavicle 9.93923e-015 -1.90833e-014
lhumerus -42.5401 -11.8575 77.9489
lradius 36.2575
lwrist 3.25879
lhand -17.7513 11.0464
lfingers 7.12502
lthumb 8.51038 40.8549
rfemur 2.7191 12.0202 21.2581
rtibia 16.8796
rfoot -33.6694 -32.6545
rtoes -13.0501
lfemur -1.75849 -19.9451 -20.985
ltibia 24.3553
lfoot -24.5504 26.0744
ltoes -2.56916
401
root 16.2655 15.4692 -0.205158 -96.3814 -92.2851 94.259
lowerback 6.81633 3.37676 -4.16244
upperback 1.68879 3.98487 -3.79397
thorax -2.08454 1.94614 -1.92638
lowerneck -12.9305 -1.83185 4.0845
upperneck 1.80378 -3.52482 5.46652
head 2.88329 -1.54676 0.84131
rclavicle 2.64384e-014 -6.20208e-014
rhumerus 35.9873 4.13736 -27.5541
rradius 85.122
rwrist -0.777322
rhand -36.2948 22.8861
rfingers 7.12502
rthumb -9.39425 -6.88454
lclavicle 2.64384e-014 -6.20208e-014
lhumerus -42.3334 -11.3705 77.6164
lradius 35.2108
lwrist 2.68005
lhand -16.6582 12.11
lfingers 7.12502
lthumb 9.56516 41.8729
rfemur 2.69697 12.4514 21.1274
rtibia 16.7018
rfoot -32.8317 -32.5881
rtoes -14.0195
lfemur -1.52484 -19.5864 -21.1778
ltibia 24.342
lfoot -24.9686 26.6315
ltoes -2.10209
402
root 16.2761 15.4744 -0.210782 -78.0602 -92.5693 75.9351
lowerback 6.87788 3.33716 -3.71754
upperback 1.66127 3.96589 -3.71057
thorax -2.12301 1.93817 -2.08955
lowerneck -12.9273 -1.82875 4.1257
upperneck 1.95405 -3.54043 5.51853
head 2.93545 -1.54686 0.850066
rclavicle 2.84262e-014 -3.97569e-014
rhumerus 39.5767 5.13026 -26.7539
rradius 85.2737
rwrist -0.259112
rhand -34.9438 23.9845
rfingers 7.12502
rthumb -8.0905 -5.84058
lclavicle 2.84262e-014 -3.97569e-014
lhumerus -42.1064 -10.7756 77.276
lradius 34.2809
lwrist 2.04561
lhand -15.8586 12.3657
lfingers 7.12502
lthumb 10.3366 42.0917
rfemur 2.63885 13.1308 21.4133
rtibia 16.4884
rfoot -32.2553 -32.7961
rtoes -14.5309
lfemur -1.48013 -19.1832 -20.9291
ltibia 24.3725
lfoot -25.2005 26.9809
ltoes -1.91842
403
root 16.2912 15.484 -0.218629 -69.0316 -93.0577 67.1001
lowerback 6.84673 3.25214 -3.16257
upperback 1.59667 3.90227 -3.61602
thorax -2.14242 1.90869 -2.2942
lowerneck -12.9561 -1.86543 4.22977
upperneck 2.1112 -3.61926 5.53163
head 2.99425 -1.57843 0.830601
rclavicle -1.27222e-014 2.54444e-014
rhumerus 43.06 5.65702 -26.1267
rradius 84.9005
rwrist 1.19029
rhand -35.3923 24.749
rfingers 7.12502
rthumb -8.52337 -5.05899
lclavicle -1.27222e-014 2.54444e-014
lhumerus -41.7793 -10.2027 76.9202
lradius 33.4919
lwrist 1.48402
lhand -15.2076 12.2235
lfingers 7.12502
lthumb 10.9645 41.9172
rfemur 2.41081 13.9119 21.8251
rtibia 16.2622
rfoot -32.0181 -33.0818
rtoes -14.3725
lfemur -1.72742 -18.855 -20.4481
ltibia 24.4177
lfoot -25.2571 27.2355
ltoes -2.12222
404
root 16.2968 15.4845 -0.22135 -58.6276 -93.5373 56.7637
lowerback 6.84496 3.31281 -2.67531
upperback 1.59332 4.02085 -3.61147
thorax -2.10973 1.96739 -2.57001
lowerneck -13.1404 -1.94196 4.31391
upperneck 2.27456 -3.76413 5.59408
head 3.08715 -1.63861 0.82485
rclavicle -5.96354e-015 -3.97569e-014
rhumerus 46.3613 5.42555 -26.1191
rradius 84.1784
rwrist 1.6328
rhand -34.6877 26.5143
rfingers 7.12502
rthumb -7.84331 -3.32018
lclavicle -5.96354e-015 -3.97569e-014
lhumerus -41.3242 -9.68904 76.5601
lradius 32.7872
lwrist 1.17726
lhand -14.7865 11.8736
lfingers 7.12502
lthumb 11.3707 41.5453
rfemur 2.32589 14.6149 22.0028
rtibia 16.0521
rfoot -31.9326 -32.9265
rtoes -13.6086
lfemur -1.71719 -18.5311 -20.2909
ltibia 24.4491
lfoot -25.6359 27.5622
ltoes -1.79717
405
root 16.3052 15.4874 -0.225034 -52.67 -93.7763 50.9678
lowerback 6.8525 3.28917 -2.33063
upperback 1.57917 4.01326 -3.65692
thorax -2.10162 1.96304 -2.8088
lowerneck -13.3159 -1.98456 4.17832
upperneck 2.35209 -3.84117 5.8885
head 3.15983 -1.66222 0.938986
rclavicle 3.8763e-014 -3.65764e-014
rhumerus 49.4456 4.82551 -26.42
rradius 83.0139
rwrist 3.03631
rhand -35.2668 29.1294
rfingers 7.12502
rthumb -8.40226 -0.683481
lclavicle 3.8763e-014 -3.65764e-014
lhumerus -40.8257 -9.04628 76.189
lradius 32.1688
lwrist 0.852015
lhand -14.7016 11.6914
lfingers 7.12502
lthumb 11.4525 41.3586
rfemur 2.09368 15.0149 21.9351
rtibia 15.9912
rfoot -32.0552 -32.6324
rtoes -12.803
lfemur -1.84607 -18.2889 -20.2577
ltibia 24.4175
lfoot -25.9392 27.6646
ltoes -1.09544
406
root 16.3127 15.4905 -0.232134 -46.1044 -93.8074 44.5289
lowerback 6.81629 3.24256 -2.34616
upperback 1.62158 3.95096 -3.69064
thorax -2.03822 1.9313 -2.82565
lowerneck -13.505 -2.00793 3.93086
upperneck 2.522 -3.87703 6.1603
head 3.26996 -1.6623 1.06867
rclavicle 4.39314e-014 -2.22639e-014
rhumerus 52.4428 3.61132 -27.3468
rradius 81.5052
rwrist 3.0588
rhand -34.7911 30.2875
rfingers 7.12502
rthumb -7.94311 0.456691
lclavicle 4.39314e-014 -2.22639e-014
lhumerus -40.3984 -8.33618 75.9325
lradius 31.8671
lwrist 0.601179
lhand -14.868 11.7822
lfingers 7.12502
lthumb 11.2921 41.4583
rfemur 1.81214 15.298 21.6154
rtibia 16.1116
rfoot -32.0225 -32.4447
rtoes -12.8603
lfemur -1.92227 -18.0401 -20.4709
ltibia 24.3064
lfoot -26.2059 27.7235
ltoes -0.354246
407
root 16.3177 15.4888 -0.243351 -38.7892 -93.994 37.207
lowerback 6.8255 3.32912 -2.48655
upperback 1.69051 4.05688 -3.66056
thorax -1.9809 1.98343 -2.72321
lowerneck -13.5797 -2.0825 3.90336
upperneck 2.68629 -3.97852 6.07551
head 3.34151 -1.70757 1.03745
rclavicle 3.77691e-014 6.36111e-015
rhumerus 54.9533 2.2667 -28.391
rradius 79.7552
rwrist 3.19705
rhand -35.7788 30.0515
rfingers 7.12502
rthumb -8.89633 0.259019
lclavicle 3.77691e-014 6.36111e-015
lhumerus -39.9842 -7.94126 75.924
lradius 31.781
lwrist 0.507165
lhand -15.3697 11.7682
lfingers 7.12502
lthumb 10.8081 41.4701
rfemur 1.61992 15.647 21.3704
rtibia 16.3238
rfoot -31.886 -32.2945
rtoes -13.3473
lfemur -1.80361 -17.6702 -20.695
ltibia 24.1435
lfoot -26.3441 27.8436
ltoes -0.0307566
